<svg width="518" height="545" viewBox="0 0 518 545" fill="none" xmlns="http://www.w3.org/2000/svg">
<g id="book 1">
<g id="undraw_books_l-33-t 1">
<g id="circle--book--svg">
<path id="Vector" opacity="0.3" d="M258.499 518.854C396.847 518.854 509 406.286 509 267.427C509 128.568 396.847 16 258.499 16C120.153 16 8 128.568 8 267.427C8 406.286 120.153 518.854 258.499 518.854Z" fill="#B7E466" fill-opacity="0.2"/>
</g>
<path id="Vector_2" d="M170.896 21.0487L18.0688 207.306L244.253 475.435L395.042 297.365L170.896 21.0487Z" fill="#B7E466"/>
<g id="pasta--book-svg-2">
<path id="Vector_3" opacity="0.1" d="M170.896 21.0487L18.0688 207.306L244.253 475.435L395.042 297.365L170.896 21.0487Z" fill="black"/>
</g>
<path id="Vector_4" d="M23.9744 209.804C27.3658 203.672 31.5711 198.03 36.475 193.036L177.292 49.6262C177.292 49.6262 226.354 41.412 236.575 66.0546L56.6822 213.91L23.9744 209.804Z" fill="#DDDDDD"/>
<g id="pasta--book-svg">
<path id="Vector_5" d="M17.0845 206L225.41 525.333C225.41 525.333 245.833 539.661 266.258 531.473L479.689 387.16L252.982 43.2632L48.7418 202.929L17.0845 206Z" fill="#B7E466"/>
</g>
<path id="Vector_6" d="M227.24 93.4052L96.5719 187.581L98.5025 190.275L229.171 96.1002L227.24 93.4052Z" fill="#3F3D56"/>
<path id="Vector_7" d="M94.8393 222.829L92.0803 224.66L263.567 484.707L266.327 482.876L94.8393 222.829Z" fill="#3F3D56"/>
<path id="Vector_8" d="M423.188 388.244L284.397 490.665L286.359 493.339L425.15 390.918L423.188 388.244Z" fill="#3F3D56"/>
<path id="Vector_9" d="M252.015 97.8935L249.3 99.7888L426.912 355.739L429.627 353.844L252.015 97.8935Z" fill="#3F3D56"/>
<path id="Vector_10" d="M197.152 47.6685L35.6075 196.372L36.9871 197.88L198.532 49.1762L197.152 47.6685Z" fill="#3F3D56"/>
<path id="Vector_11" d="M209.205 47.3478L41.2145 196.094L42.6754 197.754L210.666 49.0077L209.205 47.3478Z" fill="#3F3D56"/>
<path id="Vector_12" d="M221.171 51.9227L45.9041 198.451L47.212 200.024L222.479 53.4964L221.171 51.9227Z" fill="#3F3D56"/>
<path id="Pedro F. Cantor" d="M190.221 346.317L178.052 328.863L180.021 327.42L192.189 344.875L190.221 346.317ZM187.97 336.211L186.614 334.266L189.148 332.409C189.706 332 190.123 331.569 190.401 331.114C190.667 330.643 190.756 330.113 190.668 329.525C190.579 328.936 190.275 328.268 189.753 327.52C189.255 326.805 188.754 326.319 188.252 326.059C187.765 325.787 187.261 325.705 186.74 325.811C186.219 325.916 185.671 326.179 185.098 326.6L182.564 328.457L181.226 326.538L184.103 324.427C185.034 323.771 185.934 323.374 186.805 323.238C187.676 323.102 188.527 323.257 189.359 323.702C190.19 324.148 191.011 324.952 191.822 326.117C192.657 327.313 193.137 328.393 193.263 329.355C193.393 330.289 193.243 331.14 192.813 331.909C192.382 332.676 191.727 333.407 190.849 334.102L187.97 336.211ZM206.195 334.608C205.506 335.112 204.813 335.433 204.114 335.568C203.421 335.674 202.76 335.669 202.133 335.551C201.51 335.404 200.964 335.189 200.494 334.905C200.04 334.611 199.703 334.305 199.483 333.989L195.207 327.855C194.986 327.539 194.819 327.122 194.705 326.603C194.595 326.055 194.58 325.464 194.658 324.829C194.752 324.182 194.966 323.548 195.301 322.926C195.64 322.276 196.146 321.704 196.818 321.211L198.104 323.056C197.662 323.38 197.349 323.785 197.168 324.271C196.99 324.727 196.913 325.186 196.936 325.645C196.965 326.077 197.066 326.418 197.239 326.667L198.474 328.437L204.23 324.217L203.012 322.472C202.723 322.056 202.359 321.784 201.921 321.653C201.483 321.521 201.026 321.505 200.548 321.603C200.077 321.673 199.644 321.852 199.25 322.14L197.999 320.346C198.654 319.864 199.404 319.553 200.248 319.413C201.107 319.259 201.942 319.301 202.75 319.537C203.548 319.756 204.184 320.208 204.659 320.889L207.337 324.728L199.761 330.282L201.377 332.601C201.539 332.833 201.815 333.033 202.204 333.2C202.598 333.338 203.042 333.39 203.537 333.353C204.032 333.317 204.501 333.136 204.944 332.812L206.195 334.608ZM207.352 333.759L206.083 331.94C206.575 331.579 206.924 331.172 207.129 330.721C207.339 330.24 207.452 329.781 207.467 329.342C207.472 328.886 207.409 328.494 207.278 328.162L209.36 327.578C209.6 328.206 209.699 328.899 209.658 329.658C209.617 330.416 209.414 331.155 209.049 331.875C208.671 332.579 208.106 333.207 207.352 333.759ZM217.186 326.55C216.515 327.044 215.839 327.336 215.162 327.431C214.484 327.526 213.849 327.503 213.255 327.361C212.648 327.202 212.118 326.975 211.664 326.68C211.211 326.384 210.879 326.087 210.671 325.787L206.412 319.679C206.146 319.297 205.957 318.832 205.848 318.284C205.755 317.725 205.753 317.135 205.843 316.517C205.949 315.887 206.156 315.295 206.464 314.743C206.778 314.161 207.221 313.66 207.795 313.24L209.886 311.708L211.172 313.552L209.106 315.067C208.746 315.332 208.479 315.678 208.306 316.105C208.122 316.517 208.036 316.944 208.048 317.387C208.064 317.802 208.165 318.143 208.351 318.408L212.506 324.368C212.714 324.667 213.016 324.886 213.409 325.024C213.819 325.15 214.245 325.191 214.683 325.145C215.122 325.1 215.514 324.95 215.859 324.698L217.9 323.201L219.204 325.072L217.186 326.55ZM220.384 324.206L208.111 306.603L210.08 305.16L222.328 322.781L220.384 324.206ZM224.379 321.278L215.027 307.863L216.946 306.457L218.284 308.377C218.234 307.987 218.259 307.541 218.357 307.042C218.46 306.515 218.641 305.993 218.901 305.476C219.176 304.947 219.56 304.503 220.052 304.142C220.151 304.071 220.24 304.004 220.323 303.945C220.405 303.884 220.486 303.824 220.569 303.764L221.447 305.983C220.906 306.38 220.528 306.958 220.315 307.718C220.106 308.449 220.054 309.228 220.16 310.055C220.254 310.864 220.521 311.585 220.961 312.217L226.298 319.871L224.379 321.278ZM235.47 313.186C234.831 313.654 234.167 313.965 233.481 314.117C232.81 314.257 232.161 314.268 231.534 314.15C230.895 314.016 230.314 313.788 229.793 313.467C229.272 313.145 228.849 312.752 228.525 312.287L224.718 306.826C224.393 306.361 224.159 305.829 224.015 305.232C223.859 304.617 223.828 303.987 223.922 303.34C224.004 302.676 224.228 302.036 224.59 301.419C224.941 300.785 225.444 300.228 226.1 299.747L227.404 301.617C226.912 301.978 226.581 302.409 226.41 302.911C226.244 303.383 226.199 303.869 226.274 304.367C226.348 304.864 226.519 305.305 226.785 305.687L230.245 310.649C230.477 310.982 230.818 311.258 231.27 311.479C231.721 311.701 232.207 311.811 232.725 311.807C233.243 311.804 233.723 311.641 234.166 311.316L235.47 313.186ZM236.577 312.374L235.273 310.505C235.733 310.168 236.045 309.763 236.211 309.29C236.382 308.788 236.435 308.297 236.372 307.815C236.298 307.317 236.144 306.902 235.912 306.57L232.418 301.559C232.163 301.192 231.818 300.893 231.383 300.659C230.947 300.426 230.479 300.304 229.977 300.295C229.476 300.287 228.987 300.457 228.511 300.805L227.207 298.935C227.88 298.442 228.548 298.141 229.214 298.03C229.885 297.889 230.54 297.886 231.179 298.021C231.806 298.139 232.369 298.379 232.869 298.74C233.374 299.074 233.79 299.473 234.114 299.939L237.921 305.399C238.246 305.864 238.471 306.402 238.6 307.011C238.744 307.609 238.774 308.24 238.692 308.903C238.598 309.55 238.377 310.176 238.031 310.782C237.701 311.374 237.217 311.905 236.577 312.374ZM248.311 303.698L236.159 286.27L245.113 279.707L246.486 281.677L239.501 286.797L243.551 292.606L248.225 289.181L249.598 291.15L244.924 294.576L250.279 302.255L248.311 303.698ZM260.388 295.034C260.027 295.298 259.629 295.402 259.193 295.345C258.761 295.26 258.418 295.034 258.163 294.668C257.908 294.303 257.81 293.897 257.871 293.45C257.948 292.992 258.167 292.63 258.528 292.366C258.905 292.089 259.309 291.994 259.741 292.08C260.189 292.153 260.54 292.373 260.795 292.738C261.05 293.104 261.139 293.516 261.062 293.974C260.99 294.404 260.765 294.757 260.388 295.034ZM274.304 284.87C273.402 285.532 272.524 285.925 271.669 286.049C270.814 286.173 270.016 286.131 269.274 285.92C268.538 285.681 267.9 285.37 267.361 284.988C266.809 284.588 266.406 284.205 266.151 283.84L260.293 275.436C260.026 275.054 259.803 274.54 259.624 273.891C259.434 273.228 259.353 272.508 259.383 271.733C259.417 270.929 259.631 270.132 260.021 269.344C260.401 268.538 261.042 267.804 261.944 267.143L263.334 269.138C262.794 269.534 262.41 269.979 262.183 270.471C261.961 270.935 261.833 271.407 261.795 271.886C261.762 272.337 261.801 272.748 261.911 273.12C262.021 273.492 262.146 273.776 262.286 273.976L268.143 282.378C268.282 282.578 268.506 282.791 268.813 283.019C269.136 283.234 269.517 283.406 269.955 283.538C270.381 283.652 270.853 283.67 271.369 283.593C271.885 283.516 272.406 283.285 272.931 282.9L274.304 284.87ZM275.485 284.005L274.112 282.035C274.383 281.786 274.651 281.477 274.915 281.108C275.182 280.71 275.371 280.27 275.481 279.788C275.579 279.29 275.543 278.776 275.373 278.248C275.33 278.078 275.264 277.913 275.176 277.752C275.104 277.578 275.022 277.425 274.93 277.291C274.888 277.196 274.844 277.116 274.797 277.049C274.756 276.954 274.724 276.889 274.7 276.856L276.858 275.952C277.473 276.834 277.807 277.794 277.863 278.833C277.907 279.856 277.722 280.834 277.306 281.766C276.879 282.681 276.272 283.429 275.485 284.005ZM269.506 269.512C269.46 269.446 269.413 269.379 269.367 269.312C269.32 269.246 269.274 269.18 269.227 269.113C269.119 268.992 269.015 268.879 268.918 268.775C268.809 268.654 268.683 268.545 268.541 268.448C268.041 268.086 267.567 267.868 267.119 267.796C266.676 267.693 266.275 267.686 265.915 267.773C265.56 267.833 265.264 267.924 265.027 268.047C264.779 268.154 264.609 268.229 264.515 268.272L263.124 266.277C263.715 265.845 264.373 265.563 265.1 265.432C265.844 265.289 266.593 265.28 267.348 265.405C268.104 265.529 268.802 265.783 269.441 266.168C270.098 266.541 270.635 267.026 271.053 267.625L269.506 269.512ZM285.585 276.375C284.764 276.977 283.955 277.344 283.156 277.478C282.346 277.594 281.608 277.533 280.944 277.29C280.297 277.037 279.805 276.669 279.469 276.187L278.634 274.99C278.46 274.741 278.305 274.465 278.17 274.163C278.022 273.844 277.939 273.477 277.923 273.062C277.905 272.648 278.017 272.203 278.254 271.727C278.425 271.401 278.7 270.999 279.084 270.517C279.471 270.006 279.897 269.48 280.362 268.939C280.815 268.38 281.238 267.832 281.631 267.293C282.024 266.755 282.326 266.281 282.538 265.875C282.754 265.44 282.793 265.122 282.654 264.923L282.324 264.449C281.999 263.984 281.612 263.677 281.162 263.529C280.717 263.353 280.274 263.302 279.83 263.376C279.39 263.422 278.99 263.577 278.63 263.841L277.412 262.096C278.331 261.423 279.23 261.078 280.11 261.061C280.979 261.026 281.766 261.215 282.475 261.626C283.187 262.008 283.74 262.481 284.134 263.047L288.932 269.928C289.002 270.028 289.15 270.171 289.378 270.355C289.611 270.511 289.874 270.481 290.17 270.264L291.438 272.084C290.947 272.446 290.496 272.651 290.084 272.701C289.673 272.75 289.274 272.729 288.888 272.636C288.784 273.163 288.539 273.682 288.151 274.193C287.752 274.686 287.298 275.119 286.79 275.492L285.539 273.697C285.915 273.421 286.219 273.11 286.45 272.766C286.685 272.392 286.797 271.983 286.785 271.54C286.79 271.084 286.612 270.599 286.253 270.084L284.201 267.141C283.985 267.577 283.666 268.062 283.245 268.596C282.841 269.118 282.407 269.651 281.942 270.192C281.465 270.717 281.052 271.209 280.702 271.666C280.341 272.106 280.136 272.471 280.088 272.757C279.995 273.05 280.083 273.389 280.349 273.771L280.853 274.494C281.159 274.897 281.503 275.16 281.886 275.282C282.256 275.387 282.646 275.378 283.055 275.254C283.481 275.117 283.906 274.893 284.333 274.58L285.585 276.375ZM276.94 268.509L274.791 269.104C274.339 268.456 274.128 267.744 274.156 266.97C274.175 266.177 274.372 265.43 274.749 264.727C275.131 263.995 275.633 263.4 276.256 262.944L277.508 264.739C277.131 265.015 276.842 265.365 276.642 265.788C276.446 266.183 276.366 266.618 276.4 267.095C276.436 267.571 276.616 268.043 276.94 268.509ZM286.651 261.39C286.326 260.924 286.093 260.393 285.948 259.795C285.809 259.169 285.78 258.524 285.863 257.861C285.946 257.197 286.168 256.557 286.53 255.94C286.894 255.322 287.411 254.767 288.083 254.274L289.404 256.169C288.995 256.47 288.684 256.86 288.474 257.341C288.269 257.793 288.173 258.278 288.187 258.795C288.206 259.283 288.36 259.736 288.65 260.151L295.116 269.426L293.222 270.815L286.651 261.39ZM294.43 255.914C294.21 255.598 293.887 255.332 293.464 255.115C293.04 254.898 292.561 254.797 292.026 254.812C291.508 254.815 291.003 254.997 290.511 255.358L289.19 253.463C289.846 252.983 290.523 252.674 291.222 252.538C291.909 252.387 292.572 252.378 293.211 252.513C293.85 252.647 294.427 252.89 294.943 253.239C295.465 253.56 295.882 253.945 296.195 254.394L302.767 263.819L300.897 265.189L294.43 255.914ZM309.723 258.719C308.662 259.472 307.724 259.884 306.906 259.956C306.093 259.998 305.346 259.78 304.664 259.301C303.983 258.82 303.335 258.139 302.721 257.259L297.853 250.278L296.255 251.449L294.951 249.579L296.549 248.407L293.49 244.019L295.409 242.613L298.469 247.001L300.042 245.847L301.346 247.717L299.772 248.871L304.813 256.102C305.254 256.733 305.758 257.155 306.327 257.366C306.9 257.549 307.605 257.334 308.442 256.72L308.737 256.504L310.536 258.124L309.723 258.719ZM315.773 254.322C315.134 254.791 314.471 255.101 313.783 255.254C313.113 255.393 312.464 255.404 311.837 255.286C311.198 255.152 310.618 254.924 310.097 254.602C309.575 254.281 309.152 253.888 308.828 253.423L305.021 247.962C304.696 247.497 304.462 246.966 304.318 246.368C304.162 245.754 304.132 245.123 304.226 244.477C304.308 243.813 304.531 243.172 304.893 242.555C305.244 241.921 305.748 241.363 306.403 240.883L307.707 242.753C307.215 243.113 306.884 243.545 306.713 244.046C306.548 244.52 306.502 245.005 306.577 245.503C306.651 246.001 306.823 246.442 307.089 246.823L310.548 251.785C310.779 252.117 311.121 252.395 311.573 252.616C312.025 252.837 312.51 252.946 313.028 252.943C313.547 252.94 314.027 252.777 314.47 252.452L315.773 254.322ZM316.88 253.511L315.576 251.641C316.035 251.304 316.349 250.9 316.514 250.426C316.684 249.924 316.738 249.432 316.675 248.952C316.601 248.454 316.448 248.038 316.216 247.706L312.721 242.694C312.466 242.329 312.121 242.029 311.686 241.796C311.251 241.562 310.783 241.441 310.281 241.432C309.779 241.423 309.29 241.593 308.814 241.941L307.51 240.071C308.183 239.578 308.852 239.276 309.517 239.165C310.189 239.025 310.843 239.023 311.482 239.157C312.109 239.275 312.673 239.515 313.173 239.877C313.678 240.21 314.093 240.609 314.417 241.075L318.224 246.535C318.549 247.001 318.775 247.538 318.903 248.148C319.046 248.746 319.077 249.376 318.994 250.039C318.901 250.686 318.68 251.313 318.334 251.917C318.005 252.511 317.52 253.042 316.88 253.511ZM322.843 249.102L313.491 235.688L315.409 234.282L316.748 236.202C316.698 235.811 316.722 235.366 316.82 234.867C316.923 234.34 317.105 233.818 317.364 233.301C317.639 232.773 318.023 232.327 318.516 231.967C318.614 231.895 318.704 231.828 318.786 231.769C318.868 231.708 318.95 231.649 319.032 231.588L319.911 233.808C319.369 234.204 318.991 234.783 318.778 235.542C318.569 236.273 318.517 237.052 318.623 237.879C318.717 238.689 318.984 239.41 319.425 240.042L324.762 247.696L322.843 249.102Z" fill="#3F3D56" fill-opacity="0.8"/>
</g>
</g>
</svg>
