<svg width="584" height="728" viewBox="0 0 584 728" fill="none" xmlns="http://www.w3.org/2000/svg">
<path d="M126.804 297.091C163.559 297.091 193.354 268.876 193.354 234.071C193.354 199.267 163.559 171.052 126.804 171.052C90.05 171.052 60.2546 199.267 60.2546 234.071C60.2546 268.876 90.05 297.091 126.804 297.091Z" fill="white"/>
<path d="M103.967 262.08C103.852 262.08 103.737 262.079 103.621 262.077H67.5366C62.958 262.008 58.5913 260.24 55.3784 257.155C52.1655 254.069 50.3639 249.912 50.362 245.581C50.3602 241.25 52.1583 237.092 55.3686 234.004C58.5789 230.915 62.9441 229.144 67.5227 229.072H103.638C103.815 229.069 104.007 229.069 104.198 229.072C108.804 229.132 113.198 230.912 116.422 234.024C119.646 237.136 121.439 241.328 121.408 245.685C121.378 250.041 119.527 254.21 116.26 257.281C112.992 260.353 108.574 262.078 103.967 262.08V262.08Z" fill="#C3DE72"/>
<path d="M177.6 411.454C177.177 410.83 176.825 410.166 176.552 409.471L167.954 387.692C166.954 385.148 167.06 382.332 168.251 379.863C169.442 377.393 171.62 375.471 174.307 374.519L366.2 306.737C368.89 305.79 371.866 305.891 374.477 307.018C377.088 308.144 379.119 310.205 380.126 312.746L388.723 334.527C389.22 335.786 389.45 337.126 389.4 338.47C389.35 339.814 389.02 341.135 388.43 342.358C387.84 343.581 387.001 344.682 385.961 345.599C384.921 346.515 383.701 347.229 382.369 347.699L190.478 415.481C188.167 416.296 185.632 416.341 183.291 415.609C180.949 414.877 178.942 413.411 177.6 411.454V411.454Z" fill="#C3DE72"/>
<path d="M365.637 300.688L287.693 330.192C285.237 330.894 283.16 332.466 281.892 334.582C280.625 336.699 280.264 339.197 280.886 341.56L289.931 375.939C290.289 377.297 290.959 378.563 291.893 379.646C292.827 380.729 294.003 381.602 295.335 382.202C296.667 382.802 298.123 383.115 299.598 383.117C301.072 383.119 302.529 382.811 303.863 382.215L382.022 347.293C384.498 346.411 386.505 344.633 387.604 342.35C388.702 340.066 388.803 337.463 387.884 335.109L378.489 306.254C377.56 303.9 375.685 301.991 373.276 300.948C370.866 299.904 368.119 299.811 365.637 300.688V300.688Z" fill="#2F2E41"/>
<path d="M509.529 514.09C507.082 514.355 504.613 513.825 502.53 512.589C500.446 511.353 498.872 509.484 498.068 507.291L431.366 325.133C430.903 323.869 430.709 322.531 430.795 321.197C430.881 319.862 431.245 318.556 431.866 317.354C432.488 316.152 433.355 315.077 434.417 314.19C435.48 313.304 436.717 312.623 438.059 312.187L461.26 304.647C463.97 303.769 466.939 303.939 469.515 305.122C472.092 306.304 474.065 308.401 475.001 310.953L541.704 493.113C542.635 495.666 542.453 498.462 541.199 500.889C539.944 503.316 537.719 505.175 535.011 506.058L511.81 513.597C511.071 513.838 510.306 514.003 509.529 514.09V514.09Z" fill="#C3DE72"/>
<path d="M479.24 307.502L504.648 383.636C505.632 385.889 505.676 388.42 504.769 390.703C503.862 392.986 502.075 394.847 499.778 395.898L466.342 411.201C465.021 411.805 463.577 412.121 462.114 412.126C460.651 412.13 459.205 411.824 457.88 411.227C456.555 410.631 455.384 409.761 454.452 408.678C453.519 407.596 452.848 406.328 452.487 404.967L431.312 325.216C430.461 322.833 430.627 320.223 431.775 317.957C432.923 315.691 434.959 313.955 437.438 313.127L466.639 301.61C469.124 300.789 471.846 300.949 474.209 302.053C476.571 303.158 478.381 305.118 479.24 307.502V307.502Z" fill="#2F2E41"/>
<path d="M401.15 710.217H376.764C373.916 710.213 371.187 709.14 369.173 707.231C367.16 705.322 366.027 702.734 366.024 700.034V507.334C366.027 504.634 367.16 502.046 369.173 500.137C371.187 498.229 373.916 497.155 376.764 497.152H401.15C403.997 497.155 406.727 498.229 408.74 500.137C410.754 502.046 411.886 504.634 411.89 507.334V700.034C411.886 702.734 410.754 705.322 408.74 707.231C406.727 709.14 403.997 710.213 401.15 710.217Z" fill="#2F2E41"/>
<path d="M450.402 710.217H425.538C422.634 710.213 419.851 709.14 417.798 707.231C415.746 705.322 414.591 702.734 414.588 700.034V507.334C414.591 504.634 415.746 502.046 417.798 500.137C419.851 498.229 422.634 497.155 425.538 497.152H450.402C453.305 497.155 456.089 498.229 458.141 500.137C460.194 502.046 461.349 504.634 461.352 507.334V700.034C461.349 702.734 460.194 705.322 458.141 707.231C456.089 709.14 453.305 710.213 450.402 710.217Z" fill="#2F2E41"/>
<path d="M470.31 530.162H357.966C354.857 530.158 351.876 528.993 349.678 526.921C347.479 524.849 346.243 522.039 346.239 519.109V347.085C346.239 330.112 353.393 313.833 366.126 301.831C378.86 289.829 396.13 283.086 414.138 283.086C432.146 283.086 449.416 289.829 462.15 301.831C474.883 313.833 482.037 330.112 482.037 347.085V519.109C482.033 522.039 480.797 524.849 478.598 526.921C476.4 528.993 473.419 530.158 470.31 530.162Z" fill="#CCCCCC"/>
<path d="M487.433 571.174H430.775V269.082L431.828 269.353C447.784 273.485 461.864 282.441 471.908 294.847C481.951 307.253 487.405 322.425 487.433 338.035V571.174Z" fill="#2F2E41"/>
<path d="M393.903 571.174H337.246V338.035C337.273 322.425 342.727 307.253 352.771 294.847C362.815 282.441 376.894 273.486 392.851 269.353L393.903 269.082V571.174Z" fill="#2F2E41"/>
<path d="M413.688 249.076C463.356 249.076 503.62 211.233 503.62 164.55C503.62 117.868 463.356 80.0244 413.688 80.0244C364.02 80.0244 323.756 117.868 323.756 164.55C323.756 211.233 364.02 249.076 413.688 249.076Z" fill="#C3DE72"/>
<path d="M514.681 144.951C514.681 144.951 519.708 14.3871 454.355 56.8598C454.355 56.8598 416.651 -61.9065 324.487 115.85L297.676 141.019C297.676 141.019 418.327 125.288 530.6 174.053L514.681 144.951Z" fill="#2F2E41"/>
<path d="M415.393 206.063C409.815 205.917 402.873 205.735 397.525 202.062C395.933 200.923 394.624 199.47 393.692 197.806C392.759 196.142 392.224 194.306 392.126 192.427C392.029 191.091 392.262 189.753 392.807 188.517C393.351 187.28 394.192 186.178 395.265 185.298C398.058 183.079 402.137 182.558 406.533 183.773L401.978 152.477L405.321 152.046L410.675 188.839L407.884 187.634C404.647 186.238 400.204 185.527 397.443 187.721C396.765 188.295 396.237 189.008 395.9 189.805C395.562 190.601 395.425 191.46 395.498 192.315C395.58 193.714 395.981 195.079 396.674 196.319C397.368 197.558 398.337 198.643 399.516 199.499C403.678 202.357 409.211 202.726 415.487 202.891L415.393 206.063Z" fill="#2F2E41"/>
<path d="M384.91 156.048H367.823V158.048H384.91V156.048Z" fill="#2F2E41"/>
<path d="M442.467 156.048H423.581V158.048H442.467V156.048Z" fill="#2F2E41"/>
<path d="M214.556 419.251C212.155 420.305 209.411 420.414 206.926 419.552C204.441 418.69 202.42 416.929 201.306 414.656L143.918 297.511C142.805 295.238 142.691 292.639 143.601 290.286C144.511 287.933 146.37 286.019 148.77 284.964C151.171 283.91 153.915 283.801 156.399 284.663C158.884 285.524 160.906 287.285 162.02 289.558L219.407 406.702C220.521 408.976 220.635 411.575 219.726 413.928C218.816 416.281 216.956 418.196 214.556 419.251Z" fill="#3F3D56"/>
<path d="M156.047 293.089C154.262 293.089 152.55 292.433 151.288 291.265C150.026 290.097 149.316 288.513 149.316 286.861V207.517H65.1863C63.4013 207.517 61.6894 206.861 60.4272 205.693C59.165 204.525 58.4559 202.94 58.4559 201.288C58.4559 199.636 59.165 198.052 60.4272 196.884C61.6894 195.716 63.4013 195.059 65.1863 195.059H156.047C157.832 195.059 159.544 195.716 160.806 196.884C162.068 198.052 162.777 199.636 162.777 201.288V286.861C162.777 288.513 162.068 290.097 160.806 291.265C159.544 292.433 157.832 293.089 156.047 293.089V293.089Z" fill="#C3DE72"/>
<path d="M156.914 302.08C142.551 308.366 126.535 310.494 110.891 308.193C95.2466 305.892 80.6768 299.266 69.024 289.154C57.3712 279.041 49.1587 265.896 45.4251 251.38C41.6914 236.864 42.6044 221.63 48.0484 207.604C53.4925 193.577 63.223 181.389 76.0098 172.58C88.7965 163.771 104.065 158.737 119.885 158.114C135.704 157.491 151.364 161.308 164.884 169.082C178.404 176.855 189.178 188.236 195.841 201.786C204.752 219.959 205.658 240.724 198.36 259.527C191.063 278.329 176.157 293.632 156.914 302.08V302.08ZM97.9528 182.19C87.1808 186.905 78.1326 194.527 71.9525 204.093C65.7725 213.659 62.7383 224.74 63.2333 235.933C63.7284 247.126 67.7305 257.929 74.7338 266.976C81.737 276.023 91.4269 282.908 102.578 286.76C113.729 290.612 125.84 291.258 137.38 288.616C148.92 285.974 159.371 280.164 167.41 271.919C175.45 263.674 180.717 253.365 182.546 242.296C184.375 231.227 182.684 219.895 177.686 209.732C170.971 196.117 158.804 185.571 143.856 180.407C128.909 175.244 112.4 175.885 97.9528 182.19V182.19Z" fill="#3F3D56"/>
</svg>
