<svg width="378" height="693" viewBox="0 0 378 693" fill="none" xmlns="http://www.w3.org/2000/svg">
<g id="director 1">
<g id="teacher 1">
<path id="Vector" opacity="0.1" d="M150.062 26H84.2493C80.4531 26 77.3759 29.5824 77.3759 34.0015V45.9985C77.3759 50.4176 80.4531 54 84.2493 54H150.062C153.858 54 156.936 50.4176 156.936 45.9985V34.0015C156.936 29.5824 153.858 26 150.062 26Z" fill="#C9DA69"/>
<path id="Vector_2" opacity="0.1" d="M266.875 27H222.217C219.641 27 217.552 30.3265 217.552 34.43V45.57C217.552 49.6735 219.641 53 222.217 53H266.875C269.451 53 271.539 49.6735 271.539 45.57V34.43C271.539 30.3265 269.451 27 266.875 27Z" fill="#C9DA69"/>
<path id="Vector_3" opacity="0.1" d="M284.814 588H203.331C198.632 588 194.821 591.582 194.821 596.002V607.998C194.821 612.418 198.632 616 203.331 616H284.814C289.513 616 293.324 612.418 293.324 607.998V596.002C293.324 591.582 289.513 588 284.814 588Z" fill="#C9DA69"/>
<path id="Vector_4" opacity="0.1" d="M281.073 528H190.971C185.774 528 181.561 531.838 181.561 536.573V549.427C181.561 554.162 185.774 558 190.971 558H281.073C286.27 558 290.482 554.162 290.482 549.427V536.573C290.482 531.838 286.27 528 281.073 528Z" fill="#C9DA69"/>
<path id="Vector_5" opacity="0.1" d="M281.073 467H190.971C185.774 467 181.561 471.094 181.561 476.145V489.855C181.561 494.906 185.774 499 190.971 499H281.073C286.27 499 290.482 494.906 290.482 489.855V476.145C290.482 471.094 286.27 467 281.073 467Z" fill="#C9DA69"/>
<path id="Vector_6" opacity="0.1" d="M281.073 424H190.971C185.774 424 181.561 427.71 181.561 432.287V444.713C181.561 449.29 185.774 453 190.971 453H281.073C286.27 453 290.482 449.29 290.482 444.713V432.287C290.482 427.71 286.27 424 281.073 424Z" fill="#C9DA69"/>
<path id="Vector_8" d="M87.2282 55.9847C102.903 31.608 129.597 20 129.597 20C129.597 20 130.822 47.7895 115.196 72.0966C99.5703 96.404 72.8155 108 72.8155 108C72.8155 108 71.5416 80.2221 87.2282 55.9847Z" fill="#C9DA69"/>
<path id="Vector_9" d="M20.0461 91.5072C30.0577 117.735 57.653 135 57.653 135C57.653 135 69.0206 109.728 59.0099 83.4928C48.9983 57.2574 21.3922 40 21.3922 40C21.3922 40 10.0238 65.2718 20.0461 91.5072Z" fill="#46455B"/>
<g id="Michel">
<path id="Vector_10" d="M114.216 636.105C111.005 637.914 107.336 638.934 104.024 640.526C100.712 642.118 97.4887 644.512 96.5453 647.811C96.1939 648.835 96.2526 649.938 96.711 650.927C97.5351 652.122 98.7966 653.021 100.278 653.47C107.007 656.157 114.276 657.581 121.638 657.656C129 657.731 136.301 656.455 143.097 653.905C145.488 652.872 147.957 651.991 150.486 651.271C153.601 650.699 156.772 650.408 159.952 650.4C163.294 650.224 166.618 649.842 169.901 649.255C171.552 649.089 173.116 648.505 174.412 647.571C175.593 646.346 176.304 644.812 176.437 643.195C177.944 634.271 175.671 625.163 170.067 617.674C169.361 616.624 168.414 615.722 167.29 615.028C165.919 614.391 164.411 614.027 162.869 613.963C156.499 613.264 149.824 611.981 143.39 611.844C138.778 611.752 136.46 613.722 133.198 616.574C126.459 622.634 122.522 631.443 114.216 636.105Z" fill="#323444"/>
<path id="Vector_11" d="M208.096 635.257C208.096 640.87 208.847 646.815 212.631 651.293C214.361 653.23 216.457 654.878 218.822 656.162C226.823 660.744 237.422 662.427 245.856 658.544C247.218 657.994 248.383 657.114 249.22 656.001C250.493 654.008 249.818 651.522 249.105 649.323L236.9 611.294C229.014 612.382 217.421 613.149 210.414 616.746C205.331 619.346 208.096 630.24 208.096 635.257Z" fill="#323444"/>
<path id="Vector_12" d="M107.056 401.089C106.317 403.185 103.641 404.158 102.176 405.922C100.457 407.996 100.635 410.871 101.259 413.391C102.03 417.107 103.972 420.546 106.852 423.299C108.313 424.663 110.118 425.693 112.112 426.303C114.106 426.912 116.234 427.084 118.318 426.804C122.42 426.106 125.962 422.841 126.102 419.095C126.028 417.392 125.622 415.713 124.905 414.135L116.215 391.547C116.18 391.387 116.108 391.236 116.002 391.104C115.896 390.971 115.761 390.861 115.605 390.779C115.276 390.714 114.933 390.767 114.649 390.928C112.597 391.799 108.483 392.715 107.285 394.628C106.088 396.541 107.922 399.015 107.056 401.089Z" fill="#FBB3B2"/>
<path id="Vector_13" d="M102.991 399.955C106.164 399.508 108.941 397.835 111.91 396.736C114.878 395.636 118.598 395.212 121.095 397.045C121.808 397.572 122.497 398.294 123.427 398.282C122.162 392.681 120.248 387.214 117.72 381.971C117.63 381.719 117.456 381.499 117.222 381.341C116.875 381.214 116.486 381.214 116.14 381.341L107.565 383.357C104.393 384.101 104.024 383.872 104.266 386.679C104.33 387.927 105.043 399.955 102.991 399.955Z" fill="#323444"/>
<path id="Vector_14" d="M102.049 236.84C100.775 238.604 100.775 240.803 100.775 242.876C100.775 253.014 100.89 263.208 102.559 273.243C102.954 275.648 103.451 278.054 103.706 280.482C103.994 283.862 104.054 287.255 103.884 290.642L102.61 334.743C102.457 340.138 102.151 345.934 98.4442 350.172C97.32 351.593 96.7915 353.326 96.9535 355.064C97.9214 366.129 99.9597 377.102 101.986 388.042C105.247 386.719 108.811 386.109 112.384 386.262C115.958 386.416 119.44 387.328 122.547 388.924C128.975 370.752 132.531 351.857 133.109 332.796C133.402 323.414 132.956 313.976 134.562 304.709C137.25 289.107 136.154 273.105 134.179 257.412C133.555 252.441 132.23 247.321 128.688 243.472C125.335 240.104 120.871 237.792 115.948 236.874C111.234 235.763 107.018 236.908 102.049 236.84Z" fill="#322D51"/>
<path id="Vector_16" d="M117.617 364.731C109.073 404.1 113.738 444.864 131.019 481.844C132.513 484.582 133.559 487.498 134.128 490.504C134.829 496.117 131.949 501.512 130.306 506.941C126.484 519.289 128.688 532.439 131.134 545.074C132.153 550.343 133.202 555.609 134.281 560.87C135.338 566.002 136.357 571.58 133.707 576.231C135.988 584.776 137.339 593.241 139.619 601.786C139.861 602.462 139.935 603.178 139.835 603.882C139.376 605.001 138.566 605.975 137.504 606.689C135.804 608.238 134.582 610.159 133.959 612.262C133.336 614.365 133.333 616.577 133.95 618.682C139.772 614.925 147.887 616.242 154.538 618.682C161.188 621.122 167.736 624.409 174.921 624.409C173.876 616.826 172.87 608.865 175.978 601.752C177.787 597.628 180.972 593.734 180.883 589.323C180.794 585.372 178.106 581.844 177.457 577.937C177.215 575.507 177.317 573.059 177.762 570.652C179.469 556.632 177.532 542.474 175.596 528.476C175.378 525.716 174.654 523.007 173.456 520.458C172.551 518.808 171.201 517.228 171.226 515.383C171.226 513.241 173.15 511.5 173.863 509.461C175.137 505.704 172.793 500.595 176.322 498.27C185.622 492.13 182.055 477.468 181.851 467.102C181.69 458.16 181.265 449.225 180.577 440.298C186.433 455.101 188.827 470.832 187.61 486.506C187.202 491.638 186.451 497.033 188.68 501.775C190.387 505.418 193.776 508.419 194.693 512.279C195.267 514.662 194.858 517.125 194.986 519.553C195.113 521.981 196.031 524.627 198.362 525.853C198.541 536.895 199.636 548.705 199.827 559.747C199.703 565.392 200.215 571.034 201.356 576.586C201.928 578.352 202.244 580.177 202.299 582.015C202.011 584.321 201.332 586.573 200.285 588.693C198.065 594.605 197.485 600.914 198.595 607.073C199.706 613.232 202.472 619.053 206.656 624.031C209.662 619.232 215.93 616.689 222.045 616.288C228.161 615.887 234.199 617.273 240.123 618.67C239.218 611.978 240.698 605.199 244.353 599.312C245.332 597.985 246.084 596.533 246.583 595.005C247.27 592.096 245.665 589.197 244.798 586.322C243.384 581.74 243.881 576.803 244.213 572.015C245.324 555.98 244.534 539.883 241.855 523.997C241.442 520.868 240.626 517.793 239.422 514.834C238.964 513.78 238.403 512.772 238.021 511.706C237.42 509.796 237.078 507.826 237.002 505.842L235.537 487.514C234.505 474.673 239.193 461.993 242.467 449.462C243.932 443.849 245.525 438.247 246.506 432.543C247.843 424.777 248.06 416.839 250.022 409.176C251.78 402.303 254.952 395.602 255.615 388.557C256.634 377.641 251.589 367.091 246.697 357.08C244.659 352.956 236.951 353.368 231.995 352.635C196.846 347.446 159.825 347.412 126.676 359.107C123.247 360.384 120.159 362.301 117.617 364.731Z" fill="#282828"/>
<path id="Vector_17" d="M142.957 161.422L146.855 175.053C147.915 178.179 148.502 181.419 148.6 184.686C148.641 185.878 148.347 187.06 147.747 188.123C147.105 188.996 146.283 189.75 145.327 190.345C142.663 192.166 140.816 196.416 137.771 197.676C139.339 200.127 141.504 198.535 144.332 199.761C149.314 201.937 153.875 205.064 159.276 206.141C164.373 207.149 169.723 206.198 174.781 204.996C181.954 203.243 189.087 200.826 194.858 196.599C200.63 192.373 203.917 188.638 203.891 181.96C197.522 182.636 191.852 176.851 189.036 171.651C188.061 169.674 187.342 167.602 186.897 165.477L183.482 151.972C179.762 152.705 176.73 155.099 173.175 156.348C169.621 157.596 165.417 157.711 161.468 157.871C154.457 158.158 147.485 158.97 140.625 160.299C139.683 160.471 138.498 161.01 138.727 161.834" fill="#FBB3B2"/>
<path id="Vector_18" opacity="0.1" d="M142.957 161.422L146.855 175.053C147.915 178.179 148.502 181.419 148.6 184.686C148.641 185.878 148.347 187.06 147.747 188.123C147.105 188.996 146.283 189.75 145.327 190.345C142.663 192.166 140.816 196.416 137.771 197.676C139.339 200.127 141.504 198.535 144.332 199.761C149.314 201.937 153.875 205.064 159.276 206.141C164.373 207.149 169.723 206.198 174.781 204.996C181.954 203.243 189.087 200.826 194.858 196.599C200.63 192.373 203.917 188.638 203.891 181.96C197.522 182.636 191.852 176.851 189.036 171.651C188.061 169.674 187.342 167.602 186.897 165.477L183.482 151.972C179.762 152.705 176.73 155.099 173.175 156.348C169.621 157.596 165.417 157.711 161.468 157.871C154.457 158.158 147.485 158.97 140.625 160.299C139.683 160.471 138.498 161.01 138.727 161.834" fill="black"/>
<path id="Vector_19" d="M159.697 168.936C178.328 168.936 193.432 155.356 193.432 138.604C193.432 121.852 178.328 108.272 159.697 108.272C141.066 108.272 125.962 121.852 125.962 138.604C125.962 155.356 141.066 168.936 159.697 168.936Z" fill="#FBB3B2"/>
<path id="Vector_20" d="M168.984 188.604C170.788 185.101 173.392 181.978 176.628 179.44C181.38 175.694 187.877 172.659 188.998 167.069L199.292 177.848C199.852 178.348 200.286 178.949 200.566 179.612C200.696 180.234 200.677 180.873 200.51 181.487C200.342 182.102 200.032 182.677 199.598 183.174C197.05 186.828 193.037 189.44 189.24 192.086C180.539 198.284 172.208 204.891 164.283 211.88C163.934 212.245 163.465 212.501 162.945 212.613C162.453 212.625 161.968 212.501 161.557 212.258C154.72 209.03 148.668 204.606 143.759 199.245C143.39 198.844 142.931 198.386 142.333 198.421C141.971 198.48 141.639 198.636 141.377 198.867C137.949 201.387 134.205 204.4 129.809 204.011C135.504 200.334 138.727 194.194 139.924 187.974C140.161 185.845 140.648 183.745 141.377 181.708C141.754 180.689 142.405 179.77 143.271 179.03C144.138 178.291 145.194 177.755 146.346 177.47C143.568 181.284 145.466 186.691 149.2 189.772C152.826 192.54 157.174 194.436 161.837 195.282C166.169 196.015 167.443 191.605 168.984 188.604Z" fill="#323444"/>
<path id="Vector_21" d="M125.096 367.847C129.899 368.912 134.446 370.722 139.109 372.062C147.607 374.455 156.551 375.3 165.417 374.548C168.146 374.494 170.799 373.735 173.061 372.36C173.659 371.925 174.208 371.409 174.844 371.009C175.91 370.434 177.065 370.005 178.271 369.737C189.954 366.45 199.738 359.359 209.229 352.418C209.535 352.188 209.879 351.902 209.854 351.536C209.81 351.286 209.675 351.056 209.471 350.883L204.478 345.728C191.38 347.733 177.965 346.977 164.678 346.679C161.95 346.57 159.217 346.635 156.499 346.873C153.875 347.148 151.288 347.744 148.702 348.248C138.88 350.172 128.841 350.906 118.891 352.166C118.195 352.212 117.52 352.4 116.916 352.715C116.497 353.007 116.139 353.364 115.859 353.769L112.368 358.179C111.014 359.663 110.015 361.383 109.439 363.231C108.623 366.667 110.33 367.813 113.579 367.366C117.416 366.861 121.326 367.024 125.096 367.847Z" fill="#323444"/>
<path id="Vector_22" d="M164.143 206.634C160.246 203.043 155.828 199.941 151.009 197.413C149.061 196.301 146.901 195.524 144.638 195.122C143.5 194.92 142.326 194.944 141.199 195.193C140.072 195.443 139.02 195.911 138.115 196.565C136.982 197.47 136.268 198.73 135.172 199.681C133.793 200.722 132.214 201.526 130.51 202.052C124.71 204.28 119.214 207.097 114.126 210.448C111.354 212.192 108.855 214.265 106.7 216.611C100.928 223.254 100.062 232.292 100.215 240.723C100.329 246.588 106.585 250.94 110.891 255.328C114.929 259.645 118.584 264.241 121.822 269.073C124.14 272.372 126.561 275.946 126.267 279.875C126.026 283.094 123.937 286.118 124.267 289.325C124.382 290.471 124.79 291.524 124.905 292.635C125.134 294.926 124.127 297.217 123.872 299.508C123.528 302.75 124.701 305.969 124.764 309.233C124.718 311.468 124.402 313.692 123.822 315.866C121.375 326.335 118.305 336.862 118.929 347.549L111.872 348.695C112.541 349.284 113.045 350.006 113.346 350.804C113.646 351.601 113.733 352.45 113.6 353.284C113.468 354.117 113.118 354.91 112.581 355.599C112.044 356.289 111.334 356.855 110.508 357.251C121.528 360.562 133.44 358.889 145.122 358.878C154.792 358.878 164.423 360.023 174.08 359.863C183.737 359.703 193.699 358.133 201.662 353.219C203.828 351.891 205.815 350.333 208.096 349.176C211.15 347.753 214.441 346.785 217.842 346.312C224.139 345.232 230.54 344.718 236.951 344.777C240.085 344.777 243.5 344.892 245.996 343.196C248.748 341.318 249.449 337.916 249.818 334.835C250.187 331.581 250.417 328.317 250.481 325.052C250.587 322.51 250.438 319.964 250.035 317.446C249.652 315.605 249.155 313.785 248.544 311.994L243.741 296.782C241.754 290.505 244.519 283.621 245.104 277.114C245.244 275.579 245.27 273.793 243.958 272.807C243.486 272.452 242.837 272.212 242.684 271.662C242.615 271.401 242.607 271.13 242.66 270.866C242.713 270.602 242.824 270.35 242.989 270.127C245.538 265.545 249.36 261.502 252.85 257.366C258.714 250.113 264.156 242.593 269.157 234.835C267.591 218.602 259.988 203.317 247.576 191.445C245.028 188.959 242.11 186.576 238.543 185.454C236.212 184.814 233.795 184.463 231.358 184.412C221.37 183.804 210.975 183.266 202.274 178.753C201.648 178.364 200.942 178.095 200.196 177.963C198.273 177.768 196.872 179.475 195.623 180.826C192.413 184.263 187.686 186.233 183.532 188.764C175.787 193.495 169.736 200.001 164.143 206.634Z" fill="#3B365B"/>
<path id="Vector_23" d="M270.023 239.52C272.011 245.179 271.82 251.227 272.47 257.126C272.854 260.686 273.549 264.213 274.546 267.676C275.002 269.579 275.821 271.396 276.967 273.048C278.113 274.56 279.756 275.786 280.483 277.492C280.88 278.649 281.057 279.857 281.006 281.066L281.158 288.97C281.485 293.158 280.776 297.36 279.082 301.272L273.59 316.289C270.622 324.422 267.577 332.681 262.227 339.76C261.473 340.958 260.33 341.921 258.952 342.521C257.874 342.777 256.767 342.931 255.653 342.979C253.711 343.29 251.95 344.201 250.673 345.553C249.397 346.906 248.684 348.616 248.659 350.39C247.384 348.715 245.793 347.254 243.958 346.072L232.785 338.053C228.963 335.258 224.976 332.418 220.338 330.803C226.575 329.051 232.112 325.71 236.279 321.183C240.444 316.657 243.058 311.141 243.805 305.304C243.801 303.567 244.237 301.851 245.079 300.287C246.009 298.936 247.729 297.905 247.857 296.312C248.009 294.308 245.487 292.796 245.487 290.791C245.487 289.463 246.583 288.363 247.067 287.114C247.518 285.571 247.518 283.949 247.067 282.406L245.525 274.709C245.434 273.938 245.174 273.19 244.76 272.51C244.184 271.857 243.544 271.252 242.849 270.7C240.2 268.031 241.372 263.827 242.849 260.539C246.244 253.242 250.616 246.345 255.869 240.001C257.74 237.871 259.471 235.645 261.055 233.335C262.405 231.227 262.711 228.306 264.138 226.462C265.973 230.792 268.457 235.064 270.023 239.52Z" fill="#3B3657"/>
<path id="Vector_24" d="M219.943 331.272C219.375 331.652 218.884 332.117 218.49 332.647C216.99 334.341 214.991 335.623 212.72 336.347C213.993 337.171 215.153 337.985 216.351 338.821C225.211 344.973 233.325 351.95 240.556 359.634C241.359 357.057 246.162 357.24 247.334 354.777C247.61 354.072 247.697 353.319 247.589 352.578C247.345 348.719 246.731 344.887 245.754 341.123C245.368 339.186 244.497 337.352 243.206 335.762C241.423 333.827 238.646 332.899 235.996 332.097C231.982 330.837 224.02 329.061 219.943 331.272Z" fill="#323444"/>
<path id="Vector_25" d="M204.018 340.276C200.196 342.818 196.846 346.003 192.553 347.744C189.52 348.981 186.068 349.519 183.418 351.364C184.858 354.216 188.604 355.694 192.081 355.579C195.562 355.272 198.899 354.172 201.776 352.383C204.057 351.123 206.732 349.657 209.216 350.539C209.599 352.28 207.942 353.918 207.942 355.682C207.942 357.446 209.573 358.729 211.179 359.657C218.822 364.09 228.657 363.723 237.767 363.208C238.289 363.225 238.804 363.089 239.231 362.818C239.429 362.611 239.579 362.371 239.673 362.111C239.767 361.852 239.803 361.578 239.779 361.306C239.894 359.496 239.945 357.698 239.957 355.888C240.215 354.429 240.004 352.934 239.35 351.579C238.696 350.223 237.625 349.064 236.263 348.237C231.32 344.416 225.988 341.022 220.338 338.099C214.733 335.178 209.05 336.908 204.018 340.276Z" fill="#FBB3B2"/>
<path id="Vector_26" d="M171.545 125.924C165.888 126.531 161.774 130.506 162.347 134.824C162.92 139.143 167.965 142.121 173.622 141.502C179.278 140.884 183.392 136.92 182.819 132.613C182.246 128.306 177.201 125.317 171.545 125.924ZM173.468 140.311C168.679 140.826 164.411 138.295 163.913 134.652C163.417 131.01 166.921 127.642 171.698 127.127C176.475 126.611 180.756 129.143 181.253 132.785C181.749 136.428 178.246 139.796 173.468 140.311Z" fill="#3C354C"/>
<path id="Vector_27" d="M143.976 128.902C138.319 129.509 134.204 133.484 134.777 137.791C135.35 142.098 140.396 145.088 146.052 144.48C151.709 143.873 155.824 139.899 155.251 135.58C154.677 131.262 149.632 128.295 143.976 128.902ZM145.9 143.278C141.109 143.793 136.841 141.262 136.357 137.631C135.873 133.999 139.351 130.62 144.141 130.093C148.932 129.566 153.199 132.109 153.683 135.752C154.167 139.395 150.677 142.762 145.9 143.278Z" fill="#3C354C"/>
<path id="Vector_28" d="M123.503 131.113L135.797 133.472L134.586 136.382L122.993 133.324L123.503 131.113Z" fill="#3C354C"/>
<path id="Vector_29" d="M192.03 123.713L180.692 128.627L182.641 131.193L193.1 125.752L192.03 123.713Z" fill="#3C354C"/>
<path id="Vector_30" d="M154.117 132.739L162.742 131.812L162.296 133.736L154.894 134.183L154.117 132.739Z" fill="#3C354C"/>
<path id="Vector_31" d="M137.39 130.139C138.2 128.57 138.635 126.864 138.664 125.134C138.694 124.098 138.891 123.071 139.249 122.087C139.876 120.836 140.829 119.74 142.027 118.891C146.001 115.867 151.696 114.309 157.315 114.091C163.441 113.838 169.535 115.022 174.997 117.528C176.666 118.231 178.16 119.228 179.393 120.46C181.176 122.419 181.559 124.95 183.354 126.886C184.581 128.061 186.123 128.931 187.833 129.413C189.542 129.894 191.361 129.971 193.114 129.635C193.738 127.642 192.922 125.534 193.241 123.495C193.743 121.748 194.421 120.046 195.267 118.41C197.241 113.175 194.362 107.104 188.425 103.977C186.348 102.831 183.89 102.087 182.335 100.54C180.781 98.9937 180.412 97.3897 179.341 95.8437C176.501 91.7547 169.149 89.8417 163.557 91.7317C161.798 92.3267 160.244 93.2317 158.461 93.8737C155.149 95.0987 151.378 95.3167 147.734 95.7287C144.143 96.0277 140.631 96.8557 137.339 98.1807C134.191 99.5777 131.554 101.823 130.828 104.504C130.484 105.741 130.561 107.024 130.217 108.249C128.459 114.469 117.108 117.493 116.47 123.839C116.241 126.13 117.63 128.329 119.363 130.196C120.56 131.468 123.427 134.87 125.452 135.363C127.478 135.855 129.019 134.125 130.956 133.53C134.013 132.671 135.861 132.487 137.39 130.139Z" fill="#CBCEDA"/>
</g>
<path id="Vector_32" opacity="0.1" d="M335.01 646.677C340.596 646.677 345.124 645.465 345.124 643.971C345.124 642.476 340.596 641.265 335.01 641.265C329.425 641.265 324.897 642.476 324.897 643.971C324.897 645.465 329.425 646.677 335.01 646.677Z" fill="#C9DA69"/>
<path id="Vector_33" opacity="0.2" d="M347.299 642.618C340.789 642.7 332.17 641.009 330.433 639.336C329.111 638.065 328.585 633.484 328.407 631.382H328.215C328.215 631.382 328.579 638.75 330.317 640.423C332.054 642.097 340.673 643.788 347.185 643.706C349.066 643.706 349.713 642.618 349.678 641.054C349.418 642.005 348.731 642.599 347.299 642.618Z" fill="black"/>
<path id="Vector_34" d="M302.795 581C302.795 623.588 331.173 658 366.254 658L302.795 581Z" fill="#46455B"/>
<path id="Vector_35" d="M328.368 585C328.368 625.378 347.019 658 370.042 658L328.368 585Z" fill="#C9DA69"/>
<path id="Vector_36" opacity="0.1" d="M132.007 653.744C138.383 653.744 143.553 652.721 143.553 651.458C143.553 650.196 138.383 649.173 132.007 649.173C125.631 649.173 120.462 650.196 120.462 651.458C120.462 652.721 125.631 653.744 132.007 653.744Z" fill="#C9DA69"/>
<path id="Vector_37" opacity="0.2" d="M145.93 650.951C138.202 651.023 128.019 649.519 125.967 648.025C124.404 646.9 123.786 642.817 123.572 640.945H123.348C123.348 640.945 123.777 647.503 125.83 648.997C127.882 650.491 138.09 651.985 145.792 651.913C148.015 651.913 148.788 650.951 148.746 649.55C148.437 650.368 147.586 650.89 145.93 650.951Z" fill="black"/>
</g>
</g>
</svg>
